# xmcd
#
# Track frame offsets: 
#        150
#        36492
#        90767
#        124852
#        153120
#        236607
#        264845
#
# Disc length: 4109 seconds
#
# Revision: 0
# Processed by: cddbd v1.5.2PL0 Copyright (c) Steve Scherf et al.
# Submitted via: ExactAudioCopyFreeDBPlugin 1.0
#
DISCID=49100b07
DTITLE=Various Artist - Zauber der Violine CD2
DYEAR=1900
DGENRE=Classical
TTITLE0=Ludwig van Beethoven - Romanze G-Dur op40 für Violine und Orch
TTITLE0=ester
TTITLE1=Felix Mendelssohn Bartholdy - Konzert fuer Violine und Orchest
TTITLE1=er e-Moll op64 - 1 Allegro
TTITLE2=Felix Mendelssohn Bartholdy - Konzert fuer Violine und Orchest
TTITLE2=er e-Moll op64 - 2 Andante
TTITLE3=Felix Mendelssohn Bartholdy - Konzert fuer Violine und Orchest
TTITLE3=er e-Moll op64 - 3 Allegro non troppo
TTITLE4=Pyotr Il'yich Tchaikovsky - Konzert fue Violine und Orchester 
TTITLE4=D-Dur op35 - 1 Allegro moderato
TTITLE5=Pyotr Il'yich Tchaikovsky - Konzert fue Violine und Orchester 
TTITLE5=D-Dur op35 - 1 Canzonetta Andante
TTITLE6=Pyotr Il'yich Tchaikovsky - Konzert fue Violine und Orchester 
TTITLE6=D-Dur op35 - 3 Finale Allegro vivacissimo
EXTD=
EXTT0=
EXTT1=
EXTT2=
EXTT3=
EXTT4=
EXTT5=
EXTT6=
PLAYORDER=
